# xmcd
#
# Track frame offsets:
#	150
#	22407
#	45471
#	68535
#	95478
#	112662
#	134088
#	155510
#	177913
#
# Disc length: 2688 seconds
#
# Revision: 0
# Processed by: cddbd v1.5.2PL0 Copyright (c) Steve Scherf et al.
# Submitted via: EasyCDDAExtractor 15.3.0.1
#
DISCID=740a7e09
DTITLE=Le Thu - PNF - Tinh Ca Pham Duy Vol.2
DYEAR=2013
DGENRE=
TTITLE0=Nghin Trung Xa Cach
TTITLE1=Em Le Chua Nay
TTITLE2=Kiep Nao Co Yeu Nhau
TTITLE3=Dung Bo Em Mot Minh
TTITLE4=Neu Mot Mai Em Se Qua Doi
TTITLE5=Lam Sao Ma Quen Duoc
TTITLE6=Duong Em Di
TTITLE7=Con Gi Nua Dau
TTITLE8=Dung Xa Nhau
EXTD=
EXTT0=
EXTT1=
EXTT2=
EXTT3=
EXTT4=
EXTT5=
EXTT6=
EXTT7=
EXTT8=
PLAYORDER=
